<?xml version="1.0" encoding="utf-8"?>
<!-- Generator: Adobe Illustrator 23.1.0, SVG Export Plug-In . SVG Version: 6.00 Build 0)  -->
<svg version="1.1" id="katman_1" xmlns="http://www.w3.org/2000/svg" xmlns:xlink="http://www.w3.org/1999/xlink" x="0px" y="0px"
	 viewBox="0 0 132 195" style="enable-background:new 0 0 132 195;" xml:space="preserve">
<style type="text/css">
	.st0{display:none;opacity:0.4;fill:none;stroke:#FEDA03;enable-background:new    ;}
	.st1{fill:none;stroke:#FEDA03;}
</style>
<path class="st0" d="M49.5,51.6l46.8-27.5L77.4,74.9l-0.2,0.5l0.5,0.1l52.5,13.7l-49.4,22.6l-0.5,0.2l0.3,0.5l27.5,46.8l-50.9-18.9
	l-0.5-0.2l-0.1,0.5L43,193.3l-22.6-49.4l-0.2-0.5l-0.5,0.3l-46.8,27.5l18.9-50.9l0.2-0.5l-0.5-0.1L-61,106l49.4-22.6l0.5-0.2
	l-0.3-0.5l-27.5-46.8l50.9,18.9l0.5,0.2l0.1-0.5L26.3,2l22.6,49.4l0.2,0.5L49.5,51.6z"/>
<polygon class="st1" points="44.8,173.5 -31.2,156.8 -55.1,81.5 -18.4,41.2 4.9,114.5 -24.5,149.4 -8.7,152.7 20.8,116.5 -7.1,28.9 
	-2.7,24 -7.8,8.1 -71.5,77.9 -42.5,169.2 49.9,189.4 "/>
<polygon class="st1" points="5.1,21.5 11.5,22.9 39.4,110.6 84.4,123.1 95.4,111.3 51.2,99.7 27.9,26.5 81.1,38.2 105.1,113.5 
	52.7,171 57.7,186.9 121.4,117.1 92.4,25.8 0,5.6 "/>
</svg>
