<?xml version="1.0" encoding="utf-8"?>
<!-- Generator: Adobe Illustrator 23.1.0, SVG Export Plug-In . SVG Version: 6.00 Build 0)  -->
<svg version="1.1" id="katman_1" xmlns="http://www.w3.org/2000/svg" xmlns:xlink="http://www.w3.org/1999/xlink" x="0px" y="0px"
	 viewBox="0 0 5831.9 1144.1" style="enable-background:new 0 0 5831.9 1144.1;" xml:space="preserve">
<style type="text/css">
	.st0{fill:#F01463;}
	.st1{fill:#FFFFFF;}
</style>
<g>
	<path class="st0" d="M876.2,851.4"/>
</g>
<g>
	<path class="st1" d="M1183.2,784.8c-45,0-81.6-12.8-105.7-37.1c-19.5-19.6-30.2-46.2-31.9-78.9h84c4.5,33.8,26.8,54.3,59.9,54.3
		c37.8,0,59.7-25.9,60.1-71.1V353.5h82.2v298.3C1331.7,731.3,1272,784.8,1183.2,784.8z"/>
	<path class="st1" d="M2063.6,784.8c-121.7,0-200.3-85.8-200.3-218.7s78.6-218.7,200.3-218.7c100.7,0,170.6,55.5,185.1,145.7h-84.8
		c-9.7-46.3-46.2-74.6-97.1-74.6h-1.4c-71.7,0-116.3,56.6-116.3,147.7c0,92.5,43.5,147.7,116.2,147.7c50.4,0,86.4-25.8,98-69.7
		l85.1,0.5C2235.9,714.2,2174.6,784.8,2063.6,784.8z"/>
	<polygon class="st1" points="2590.2,778.6 2472.4,594 2416.2,663.5 2416.2,778.6 2332.9,778.6 2332.9,353.5 2416.2,353.5 
		2416.2,544.1 2438.4,544.1 2588.3,353.5 2685.2,353.5 2534.6,541.3 2690.2,778.6 	"/>
	<path class="st1" d="M4206.2,784.8C4084.5,784.8,4006,699,4006,566s78.6-218.7,200.2-218.7c100.7,0,170.6,55.5,185.1,145.7h-84.8
		c-9.8-46.3-46.2-74.6-97.1-74.6h-1.4c-71.7,0-116.3,56.6-116.3,147.7c0,92.5,43.5,147.7,116.2,147.7c50.3,0,86.4-25.8,98-69.7
		l85.1,0.5C4378.4,714.2,4317.2,784.8,4206.2,784.8z"/>
	<path class="st1" d="M5081,784.8c-106.3-0.3-167.6-46.9-173.8-131.5h80.3c6.8,41.2,40.6,65.4,92.3,65.4c49.2,0,81.5-23,82.3-58.6
		c-0.9-38.1-39.5-51.9-81.2-61.3l-46.8-11.1c-77.9-18.1-115.7-55.1-115.7-112.9c-0.1-31.4,11.3-59.5,33-81.3
		c29.6-29.7,75.9-46.1,130.2-46.1c91.5,0,152.6,45.7,158.9,117.3h-80.6c-7.1-33.1-35.4-51.8-79-51.8c-55.2,0-75.2,28.1-75.5,54.4
		c-0.9,39.6,42.5,53.6,75.1,60.6l38.7,9.2c84.8,18.5,127.8,59.9,128,122.8C5247,739,5186.4,784.5,5081,784.8z"/>
	<polygon class="st1" points="1728.4,778.6 1610.8,409.4 1493.2,778.6 1404.3,778.6 1548.8,353.5 1672.8,353.5 1816.6,778.6 	"/>
	<polygon class="st1" points="4771.9,778.6 4654.4,409.4 4536.8,778.6 4447.9,778.6 4592.4,353.5 4716.4,353.5 4860.3,778.6 	"/>
	<path class="st1" d="M2760.4,778.6V353.5h171.8c47.1,0,86.2,14.3,113.2,41.4c25.2,25.3,38.4,60.3,38.3,101.4
		c0.1,40.8-12.9,75.4-37.7,100.3c-27.4,27.5-67.8,42-116.9,42h-24.3v-61.8h5.2c53.7,0,86.6-30.8,86.6-80.4s-32.4-79.2-86.6-79.2
		h-66.3v1.5l-0.6,10.7v349.2H2760.4z"/>
	<polygon class="st1" points="3739.4,784.8 3739.4,431.2 3822.2,475.3 3822.2,784.8 	"/>
	<rect x="3603.7" y="353.5" class="st1" width="354.1" height="64.2"/>
	<polygon class="st1" points="5443.4,784.8 5443.4,431.2 5526.1,475.3 5526.1,784.8 	"/>
	<rect x="5307.7" y="353.5" class="st1" width="354.1" height="64.2"/>
	<g>
		<path class="st1" d="M3530.4,433l-52,52c37.6,57.5,31.1,135.4-19.4,185.9s-128.4,57-186,19.3l-52,52
			c86.6,65.5,210.3,59,289.3-19.9C3589.5,643.3,3596,519.6,3530.4,433z"/>
		<path class="st1" d="M3229.9,647c-37.6-57.5-31.2-135.4,19.4-185.9c50.5-50.5,128.4-57,185.9-19.3l52-52
			c-86.6-65.5-210.3-59-289.3,19.9c-79,79-85.4,202.7-19.9,289.3L3229.9,647z"/>
	</g>
</g>
<polyline class="st0" points="457.1,929.2 143.6,748.3 143.6,380.7 363.2,253.9 363.2,611.4 183.5,725 249,761.7 430.7,642.7 
	430.7,214.9 457.1,199.8 457.1,121.8 76.1,341.7 76.1,787.3 457.1,1007.2 "/>
<polyline class="st0" points="495.3,1007.2 876.2,787.3 876.2,341.7 495.3,121.8 495.3,199.8 521.6,214.9 521.6,642.7 703.3,761.7 
	768.8,725 589.1,611.4 589.1,253.9 808.7,380.7 808.7,748.3 495.3,929.2 "/>
</svg>
