<svg width="70" height="70" viewBox="0 0 70 70" fill="none" xmlns="http://www.w3.org/2000/svg" xmlns:xlink="http://www.w3.org/1999/xlink">
<path id="XMLID_6313_" class="st8" d="M378,269.5l-1.5-67.1c0-0.3-0.1-0.6-0.1-0.8c0.3-2.2,0.2-4.6,0-7.1c-0.1-0.8-0.3-1.5-0.8-2     l-0.7-1l-1-1.3l0,0h-23.4l-1,1.3l-0.7,1c-0.4,0.6-0.7,1.3-0.8,2c-0.3,3-0.3,5.3,0,7.1c-0.1,0.3-0.1,0.6-0.1,0.8l-1.5,67.1     c5.7,0,6.3,0,10,0l1.3-59.9c1.3,0.1,2.8,0.3,4.4,0.3c1.7,0,3.1-0.1,4.4-0.3l1.3,59.9C371.7,269.5,374.3,269.5,378,269.5z"></path>
</svg>
