<?xml version="1.0" encoding="utf-8"?>
<!-- Generator: Adobe Illustrator 23.1.0, SVG Export Plug-In . SVG Version: 6.00 Build 0)  -->
<svg width="25" height="25" viewBox="0 0 10 15" fill="none" xmlns="http://www.w3.org/2000/svg">
<style type="text/css">
	.st0{fill:#F01463;}
</style>
<g>
	<g>
		<path class="st0" d="M2.3,5.4c0.3-0.6,0.9-1,1.7-1s1.3,0.4,1.7,1h0.1h1.8C7.1,3.8,5.7,2.6,4,2.6S0.9,3.8,0.5,5.4H2.3z"/>
		<path class="st0" d="M5.8,7.3H5.6C5.2,7.8,4.7,8.1,4,8.1S2.8,7.8,2.4,7.3H0.5C1,8.8,2.4,9.9,4,9.9s3-1.1,3.5-2.6H5.8z"/>
	</g>
	<g>
		<path class="st0" d="M4.2,6.7c0,0.1,0,0.2,0,0.3c0,0.1,0,0.1-0.1,0.2c0,0-0.1,0.1-0.1,0.1c0,0-0.1,0-0.2,0c-0.1,0-0.1,0-0.1,0
			c0,0-0.1-0.1-0.1-0.1L3.5,6.9L3,7.3l0.1,0.1c0.1,0.1,0.2,0.2,0.3,0.3c0.1,0.1,0.3,0.1,0.4,0.1c0.2,0,0.3,0,0.4-0.1
			c0.1-0.1,0.2-0.1,0.3-0.3c0.1-0.1,0.1-0.2,0.2-0.3c0-0.1,0-0.3,0-0.4V4.8H4.2V6.7z"/>
		<path class="st0" d="M7.2,6.4c0,0-0.1-0.1-0.1-0.1c0,0,0,0,0,0c0,0,0,0,0.1-0.1c0,0,0-0.1,0-0.1c0,0,0-0.1,0-0.1
			c0-0.1,0-0.1,0-0.2c0-0.1-0.1-0.1-0.1-0.1c0,0-0.1-0.1-0.2-0.1c-0.1,0-0.1,0-0.2,0H6.2v1.5h0.6c0,0,0,0,0.1,0c0,0,0.1,0,0.1,0
			c0,0,0.1,0,0.1,0C7,7,7.1,7,7.1,7c0,0,0.1-0.1,0.1-0.1c0-0.1,0-0.1,0-0.2v0C7.2,6.6,7.2,6.5,7.2,6.4z M6.4,6.4h0.3
			c0.1,0,0.2,0,0.2,0.1C7,6.5,7,6.6,7,6.7c0,0.1,0,0.1-0.1,0.2c0,0-0.1,0.1-0.2,0.1H6.4V6.4z M6.9,6.1C6.9,6.1,6.9,6.1,6.9,6.1
			C6.9,6.2,6.8,6.2,6.8,6.2c0,0-0.1,0-0.1,0H6.4V5.8h0.3c0.1,0,0.2,0,0.2,0.1C6.9,5.9,7,5.9,6.9,6.1C7,6,7,6.1,6.9,6.1z"/>
	</g>
	<path class="st0" d="M4,2.3c-2.2,0-4,1.8-4,4c0,2.2,1.8,4,4,4s4-1.8,4-4C8,4,6.2,2.3,4,2.3z M4,10.1c-2,0-3.7-1.6-3.8-3.5H2V6H0.2
		C0.3,4,2,2.4,4,2.4c2.1,0,3.8,1.7,3.8,3.8S6.1,10.1,4,10.1z"/>
</g>
</svg>
